<svg width="100%" height="100%" id="svg" viewBox="0 0 1440 390" xmlns="http://www.w3.org/2000/svg" class="transition duration-300 ease-in-out delay-150"><defs><linearGradient id="gradient" x1="44%" y1="0%" x2="56%" y2="100%"><stop offset="5%" stop-color="#9900ef"></stop><stop offset="95%" stop-color="#9900ef"></stop></linearGradient></defs><path d="M 0,400 L 0,60 C 46.80813910469848,36.42614379084968 93.61627820939697,12.85228758169935 153,30 C 212.38372179060303,47.14771241830065 284.3430262671106,105.01699346405226 333,142 C 381.6569737328894,178.98300653594774 407.0116167221606,195.0797385620915 461,212 C 514.9883832778394,228.9202614379085 597.6105068442471,246.66405228758168 656,270 C 714.3894931557529,293.3359477124183 748.546355900851,322.26405228758176 796,348 C 843.453644099149,373.73594771241824 904.2040695523492,396.27973856209144 953,425 C 1001.7959304476508,453.72026143790856 1038.6373658897521,488.61699346405226 1095,522 C 1151.3626341102479,555.3830065359477 1227.2464668886423,587.2522875816993 1288,610 C 1348.7535331113577,632.7477124183007 1394.3767665556788,646.3738562091503 1440,660 L 1440,400 L 0,400 Z" stroke="none" stroke-width="0" fill="url(#gradient)" fill-opacity="0.265" class="transition-all duration-300 ease-in-out delay-150 path-0"></path><defs><linearGradient id="gradient" x1="44%" y1="0%" x2="56%" y2="100%"><stop offset="5%" stop-color="#9900ef"></stop><stop offset="95%" stop-color="#9900ef"></stop></linearGradient></defs><path d="M 0,400 L 0,140 C 43.344037489209526,148.7231964483907 86.68807497841905,157.44639289678136 146,168 C 205.31192502158095,178.55360710321864 280.59173757553333,190.93762486126528 335,206 C 389.40826242446667,221.06237513873472 422.9449747194476,238.80310765815767 465,265 C 507.0550252805524,291.19689234184233 557.6283635466765,325.84994450610435 612,349 C 666.3716364533235,372.15005549389565 724.5415710938464,383.7971143174251 786,419 C 847.4584289061536,454.2028856825749 912.205352077938,512.9615982241953 968,539 C 1023.794647922062,565.0384017758047 1070.6370205944015,558.3564927857936 1119,568 C 1167.3629794055985,577.6435072142064 1217.2465655444566,603.6124306326304 1271,635 C 1324.7534344555434,666.3875693673696 1382.3767172277717,703.1937846836847 1440,740 L 1440,400 L 0,400 Z" stroke="none" stroke-width="0" fill="url(#gradient)" fill-opacity="0.4" class="transition-all duration-300 ease-in-out delay-150 path-1"></path><defs><linearGradient id="gradient" x1="44%" y1="0%" x2="56%" y2="100%"><stop offset="5%" stop-color="#9900ef"></stop><stop offset="95%" stop-color="#9900ef"></stop></linearGradient></defs><path d="M 0,400 L 0,220 C 55.790159082500935,199.25569120730052 111.58031816500187,178.51138241460106 161,201 C 210.41968183499813,223.48861758539894 253.46888642249348,289.2101615488963 303,319 C 352.5311135775065,348.7898384511037 408.544136145024,342.6479713898138 467,365 C 525.455863854976,387.3520286101862 586.3545689974103,438.1979528918486 641,467 C 695.6454310025897,495.8020471081514 744.0375878653349,502.5602170427919 795,526 C 845.9624121346651,549.4397829572081 899.4950795412504,589.5611789369835 948,621 C 996.5049204587496,652.4388210630165 1039.9820939696633,675.1950672092738 1094,698 C 1148.0179060303367,720.8049327907262 1212.5765445800962,743.6585522259218 1272,764 C 1331.4234554199038,784.3414477740782 1385.711727709952,802.1707238870391 1440,820 L 1440,400 L 0,400 Z" stroke="none" stroke-width="0" fill="url(#gradient)" fill-opacity="0.53" class="transition-all duration-300 ease-in-out delay-150 path-2"></path><defs><linearGradient id="gradient" x1="44%" y1="0%" x2="56%" y2="100%"><stop offset="5%" stop-color="#9900ef"></stop><stop offset="95%" stop-color="#9900ef"></stop></linearGradient></defs><path d="M 0,400 L 0,300 C 69.70304599827351,279.319422863485 139.40609199654702,258.63884572697003 186,272 C 232.59390800345298,285.36115427302997 256.0786780120854,332.7640399556049 305,371 C 353.9213219879146,409.2359600443951 428.2791959551116,438.3049944506104 495,462 C 561.7208040448884,485.6950055493896 620.8045381674683,504.01598224195345 664,528 C 707.1954618325317,551.9840177580465 734.5026513750155,581.631076581576 788,599 C 841.4973486249845,616.368923418424 921.1848563324702,621.4597114317424 977,649 C 1032.8151436675298,676.5402885682576 1064.757923295104,726.530077691454 1111,754 C 1157.242076704896,781.469922308546 1217.783450487113,786.4199778024417 1275,807 C 1332.216549512887,827.5800221975583 1386.1082747564435,863.7900110987791 1440,900 L 1440,400 L 0,400 Z" stroke="none" stroke-width="0" fill="url(#gradient)" fill-opacity="1" class="transition-all duration-300 ease-in-out delay-150 path-3"></path></svg>