<svg width="100%" height="100%" id="svg" viewBox="0 0 1440 390" xmlns="http://www.w3.org/2000/svg" class="transition duration-300 ease-in-out delay-150"><defs><linearGradient id="gradient" x1="44%" y1="0%" x2="56%" y2="100%"><stop offset="5%" stop-color="#9900ef"></stop><stop offset="95%" stop-color="#9900ef"></stop></linearGradient></defs><path d="M 0,400 L 0,400 C 121.07142857142858,271.25 242.14285714285717,142.5 373,104 C 503.85714285714283,65.5 644.4999999999999,117.25 769,103 C 893.5000000000001,88.75 1001.8571428571429,8.5 1111,47 C 1220.142857142857,85.5 1330.0714285714284,242.75 1440,400 L 1440,400 L 0,400 Z" stroke="none" stroke-width="0" fill="url(#gradient)" fill-opacity="0.4" class="transition-all duration-300 ease-in-out delay-150 path-0" transform="rotate(-180 720 200)"></path><defs><linearGradient id="gradient" x1="44%" y1="0%" x2="56%" y2="100%"><stop offset="5%" stop-color="#9900ef"></stop><stop offset="95%" stop-color="#9900ef"></stop></linearGradient></defs><path d="M 0,400 L 0,400 C 146.3214285714286,281.92857142857144 292.6428571428572,163.85714285714286 413,140 C 533.3571428571428,116.14285714285714 627.7499999999998,186.5 746,192 C 864.2500000000002,197.5 1006.3571428571429,138.14285714285714 1126,162 C 1245.642857142857,185.85714285714286 1342.8214285714284,292.92857142857144 1440,400 L 1440,400 L 0,400 Z" stroke="none" stroke-width="0" fill="url(#gradient)" fill-opacity="0.53" class="transition-all duration-300 ease-in-out delay-150 path-1" transform="rotate(-180 720 200)"></path><defs><linearGradient id="gradient" x1="44%" y1="0%" x2="56%" y2="100%"><stop offset="5%" stop-color="#9900ef"></stop><stop offset="95%" stop-color="#9900ef"></stop></linearGradient></defs><path d="M 0,400 L 0,400 C 107.78571428571428,338.25 215.57142857142856,276.5 336,264 C 456.42857142857144,251.5 589.5,288.25 701,287 C 812.5,285.75 902.4285714285713,246.5 1022,259 C 1141.5714285714287,271.5 1290.7857142857142,335.75 1440,400 L 1440,400 L 0,400 Z" stroke="none" stroke-width="0" fill="url(#gradient)" fill-opacity="1" class="transition-all duration-300 ease-in-out delay-150 path-2" transform="rotate(-180 720 200)"></path></svg>